solid OBJECT
  facet normal 0 0.19509032201612761 0.98078528040323065
    outer loop
      vertex 0.24000000000000021 0 0.1025907255093671
      vertex 0.24000000000000021 0.039259770966749361 0.094781471523587846
      vertex 0.20500000000000007 0.039259770966749361 0.094781471523587846
    endloop
  endfacet
  facet normal -0 0.19509032201612761 0.98078528040323065
    outer loop
      vertex 0.24000000000000021 0 0.1025907255093671
      vertex 0.20500000000000007 0.039259770966749361 0.094781471523587846
      vertex 0.20500000000000007 0 0.1025907255093671
    endloop
  endfacet
  facet normal 0 0.55557023301960273 0.8314696123025449
    outer loop
      vertex 0.24000000000000021 0.039259770966749361 0.094781471523587846
      vertex 0.24000000000000021 0.072542597694521177 0.072542597694521205
      vertex 0.20500000000000007 0.072542597694521177 0.072542597694521205
    endloop
  endfacet
  facet normal 0 0.55557023301960273 0.8314696123025449
    outer loop
      vertex 0.24000000000000021 0.039259770966749361 0.094781471523587846
      vertex 0.20500000000000007 0.072542597694521177 0.072542597694521205
      vertex 0.20500000000000007 0.039259770966749361 0.094781471523587846
    endloop
  endfacet
  facet normal 0 0.83146961230254524 0.55557023301960207
    outer loop
      vertex 0.24000000000000021 0.072542597694521177 0.072542597694521205
      vertex 0.24000000000000021 0.09478147152358779 0.039259770966749374
      vertex 0.20500000000000007 0.09478147152358779 0.039259770966749374
    endloop
  endfacet
  facet normal 0 0.83146961230254524 0.55557023301960207
    outer loop
      vertex 0.24000000000000021 0.072542597694521177 0.072542597694521205
      vertex 0.20500000000000007 0.09478147152358779 0.039259770966749374
      vertex 0.20500000000000007 0.072542597694521177 0.072542597694521205
    endloop
  endfacet
  facet normal 0 0.98078528040323043 0.19509032201612819
    outer loop
      vertex 0.24000000000000021 0.09478147152358779 0.039259770966749374
      vertex 0.24000000000000021 0.10259072550936707 0
      vertex 0.20500000000000007 0.10259072550936707 0
    endloop
  endfacet
  facet normal -0 0.98078528040323043 0.19509032201612819
    outer loop
      vertex 0.24000000000000021 0.09478147152358779 0.039259770966749374
      vertex 0.20500000000000007 0.10259072550936707 0
      vertex 0.20500000000000007 0.09478147152358779 0.039259770966749374
    endloop
  endfacet
  facet normal 0 0.98078528040323043 -0.19509032201612819
    outer loop
      vertex 0.24000000000000021 0.10259072550936707 0
      vertex 0.24000000000000021 0.09478147152358779 -0.039259770966749374
      vertex 0.20500000000000007 0.09478147152358779 -0.039259770966749374
    endloop
  endfacet
  facet normal -0 0.98078528040323043 -0.19509032201612819
    outer loop
      vertex 0.24000000000000021 0.10259072550936707 0
      vertex 0.20500000000000007 0.09478147152358779 -0.039259770966749374
      vertex 0.20500000000000007 0.10259072550936707 0
    endloop
  endfacet
  facet normal 0 0.83146961230254524 -0.55557023301960207
    outer loop
      vertex 0.24000000000000021 0.09478147152358779 -0.039259770966749374
      vertex 0.24000000000000021 0.072542597694521177 -0.072542597694521205
      vertex 0.20500000000000007 0.072542597694521177 -0.072542597694521205
    endloop
  endfacet
  facet normal 0 0.83146961230254524 -0.55557023301960207
    outer loop
      vertex 0.24000000000000021 0.09478147152358779 -0.039259770966749374
      vertex 0.20500000000000007 0.072542597694521177 -0.072542597694521205
      vertex 0.20500000000000007 0.09478147152358779 -0.039259770966749374
    endloop
  endfacet
  facet normal -0 0.55557023301960295 -0.83146961230254479
    outer loop
      vertex 0.24000000000000021 0.072542597694521177 -0.072542597694521205
      vertex 0.24000000000000021 0.039259770966749374 -0.094781471523587846
      vertex 0.20500000000000007 0.039259770966749374 -0.094781471523587846
    endloop
  endfacet
  facet normal 0 0.55557023301960295 -0.83146961230254479
    outer loop
      vertex 0.24000000000000021 0.072542597694521177 -0.072542597694521205
      vertex 0.20500000000000007 0.039259770966749374 -0.094781471523587846
      vertex 0.20500000000000007 0.072542597694521177 -0.072542597694521205
    endloop
  endfacet
  facet normal 0 0.19509032201612761 -0.98078528040323065
    outer loop
      vertex 0.24000000000000021 0.039259770966749374 -0.094781471523587846
      vertex 0.24000000000000021 1.2563740361725111e-17 -0.1025907255093671
      vertex 0.20500000000000007 1.2563740361725111e-17 -0.1025907255093671
    endloop
  endfacet
  facet normal 0 0.19509032201612761 -0.98078528040323065
    outer loop
      vertex 0.24000000000000021 0.039259770966749374 -0.094781471523587846
      vertex 0.20500000000000007 1.2563740361725111e-17 -0.1025907255093671
      vertex 0.20500000000000007 0.039259770966749374 -0.094781471523587846
    endloop
  endfacet
  facet normal 0 -0.19509032201612758 -0.98078528040323065
    outer loop
      vertex 0.24000000000000021 1.2563740361725111e-17 -0.1025907255093671
      vertex 0.24000000000000021 -0.039259770966749354 -0.094781471523587846
      vertex 0.20500000000000007 -0.039259770966749354 -0.094781471523587846
    endloop
  endfacet
  facet normal 0 -0.19509032201612758 -0.98078528040323065
    outer loop
      vertex 0.24000000000000021 1.2563740361725111e-17 -0.1025907255093671
      vertex 0.20500000000000007 -0.039259770966749354 -0.094781471523587846
      vertex 0.20500000000000007 1.2563740361725111e-17 -0.1025907255093671
    endloop
  endfacet
  facet normal 0 -0.55557023301960273 -0.83146961230254501
    outer loop
      vertex 0.24000000000000021 -0.039259770966749354 -0.094781471523587846
      vertex 0.24000000000000021 -0.072542597694521177 -0.072542597694521205
      vertex 0.20500000000000007 -0.072542597694521177 -0.072542597694521205
    endloop
  endfacet
  facet normal 0 -0.55557023301960273 -0.83146961230254501
    outer loop
      vertex 0.24000000000000021 -0.039259770966749354 -0.094781471523587846
      vertex 0.20500000000000007 -0.072542597694521177 -0.072542597694521205
      vertex 0.20500000000000007 -0.039259770966749354 -0.094781471523587846
    endloop
  endfacet
  facet normal -0 -0.83146961230254557 -0.55557023301960196
    outer loop
      vertex 0.24000000000000021 -0.072542597694521177 -0.072542597694521205
      vertex 0.24000000000000021 -0.094781471523587776 -0.039259770966749374
      vertex 0.20500000000000007 -0.094781471523587776 -0.039259770966749374
    endloop
  endfacet
  facet normal 0 -0.83146961230254557 -0.55557023301960196
    outer loop
      vertex 0.24000000000000021 -0.072542597694521177 -0.072542597694521205
      vertex 0.20500000000000007 -0.094781471523587776 -0.039259770966749374
      vertex 0.20500000000000007 -0.072542597694521177 -0.072542597694521205
    endloop
  endfacet
  facet normal 0 -0.98078528040323054 -0.19509032201612855
    outer loop
      vertex 0.24000000000000021 -0.094781471523587776 -0.039259770966749374
      vertex 0.24000000000000021 -0.10259072550936707 0
      vertex 0.20500000000000007 -0.10259072550936707 0
    endloop
  endfacet
  facet normal 0 -0.98078528040323054 -0.19509032201612855
    outer loop
      vertex 0.24000000000000021 -0.094781471523587776 -0.039259770966749374
      vertex 0.20500000000000007 -0.10259072550936707 0
      vertex 0.20500000000000007 -0.094781471523587776 -0.039259770966749374
    endloop
  endfacet
  facet normal 0 -0.98078528040323054 0.19509032201612855
    outer loop
      vertex 0.24000000000000021 -0.10259072550936707 0
      vertex 0.24000000000000021 -0.094781471523587776 0.039259770966749374
      vertex 0.20500000000000007 -0.094781471523587776 0.039259770966749374
    endloop
  endfacet
  facet normal 0 -0.98078528040323054 0.19509032201612855
    outer loop
      vertex 0.24000000000000021 -0.10259072550936707 0
      vertex 0.20500000000000007 -0.094781471523587776 0.039259770966749374
      vertex 0.20500000000000007 -0.10259072550936707 0
    endloop
  endfacet
  facet normal 0 -0.83146961230254557 0.55557023301960162
    outer loop
      vertex 0.24000000000000021 -0.094781471523587776 0.039259770966749374
      vertex 0.24000000000000021 -0.072542597694521191 0.072542597694521205
      vertex 0.20500000000000007 -0.072542597694521191 0.072542597694521205
    endloop
  endfacet
  facet normal 0 -0.83146961230254557 0.55557023301960162
    outer loop
      vertex 0.24000000000000021 -0.094781471523587776 0.039259770966749374
      vertex 0.20500000000000007 -0.072542597694521191 0.072542597694521205
      vertex 0.20500000000000007 -0.094781471523587776 0.039259770966749374
    endloop
  endfacet
  facet normal 0 -0.55557023301960329 0.83146961230254446
    outer loop
      vertex 0.24000000000000021 -0.072542597694521191 0.072542597694521205
      vertex 0.24000000000000021 -0.039259770966749423 0.094781471523587846
      vertex 0.20500000000000007 -0.039259770966749423 0.094781471523587846
    endloop
  endfacet
  facet normal 0 -0.55557023301960329 0.83146961230254446
    outer loop
      vertex 0.24000000000000021 -0.072542597694521191 0.072542597694521205
      vertex 0.20500000000000007 -0.039259770966749423 0.094781471523587846
      vertex 0.20500000000000007 -0.072542597694521191 0.072542597694521205
    endloop
  endfacet
  facet normal 0 -0.1950903220161273 0.98078528040323065
    outer loop
      vertex 0.24000000000000021 -0.039259770966749423 0.094781471523587846
      vertex 0.24000000000000021 0 0.1025907255093671
      vertex 0.20500000000000007 0 0.1025907255093671
    endloop
  endfacet
  facet normal -0 -0.1950903220161273 0.98078528040323065
    outer loop
      vertex 0.24000000000000021 -0.039259770966749423 0.094781471523587846
      vertex 0.20500000000000007 0 0.1025907255093671
      vertex 0.20500000000000007 -0.039259770966749423 0.094781471523587846
    endloop
  endfacet
  facet normal 1 -0 0
    outer loop
      vertex 0.24000000000000021 0 0
      vertex 0.24000000000000021 0.039259770966749361 0.094781471523587846
      vertex 0.24000000000000021 0 0.1025907255093671
    endloop
  endfacet
  facet normal 1 -0 0
    outer loop
      vertex 0.24000000000000021 0 0
      vertex 0.24000000000000021 0.072542597694521177 0.072542597694521205
      vertex 0.24000000000000021 0.039259770966749361 0.094781471523587846
    endloop
  endfacet
  facet normal 1 -0 0
    outer loop
      vertex 0.24000000000000021 0 0
      vertex 0.24000000000000021 0.09478147152358779 0.039259770966749374
      vertex 0.24000000000000021 0.072542597694521177 0.072542597694521205
    endloop
  endfacet
  facet normal 1 -0 0
    outer loop
      vertex 0.24000000000000021 0 0
      vertex 0.24000000000000021 0.10259072550936707 0
      vertex 0.24000000000000021 0.09478147152358779 0.039259770966749374
    endloop
  endfacet
  facet normal 1 0 0
    outer loop
      vertex 0.24000000000000021 0 0
      vertex 0.24000000000000021 0.09478147152358779 -0.039259770966749374
      vertex 0.24000000000000021 0.10259072550936707 0
    endloop
  endfacet
  facet normal 1 0 0
    outer loop
      vertex 0.24000000000000021 0 0
      vertex 0.24000000000000021 0.072542597694521177 -0.072542597694521205
      vertex 0.24000000000000021 0.09478147152358779 -0.039259770966749374
    endloop
  endfacet
  facet normal 1 0 0
    outer loop
      vertex 0.24000000000000021 0 0
      vertex 0.24000000000000021 0.039259770966749374 -0.094781471523587846
      vertex 0.24000000000000021 0.072542597694521177 -0.072542597694521205
    endloop
  endfacet
  facet normal 1 0 0
    outer loop
      vertex 0.24000000000000021 0 0
      vertex 0.24000000000000021 1.2563740361725111e-17 -0.1025907255093671
      vertex 0.24000000000000021 0.039259770966749374 -0.094781471523587846
    endloop
  endfacet
  facet normal 1 0 0
    outer loop
      vertex 0.24000000000000021 0 0
      vertex 0.24000000000000021 -0.039259770966749354 -0.094781471523587846
      vertex 0.24000000000000021 1.2563740361725111e-17 -0.1025907255093671
    endloop
  endfacet
  facet normal 1 0 -0
    outer loop
      vertex 0.24000000000000021 0 0
      vertex 0.24000000000000021 -0.072542597694521177 -0.072542597694521205
      vertex 0.24000000000000021 -0.039259770966749354 -0.094781471523587846
    endloop
  endfacet
  facet normal 1 0 -0
    outer loop
      vertex 0.24000000000000021 0 0
      vertex 0.24000000000000021 -0.094781471523587776 -0.039259770966749374
      vertex 0.24000000000000021 -0.072542597694521177 -0.072542597694521205
    endloop
  endfacet
  facet normal 1 0 -0
    outer loop
      vertex 0.24000000000000021 0 0
      vertex 0.24000000000000021 -0.10259072550936707 0
      vertex 0.24000000000000021 -0.094781471523587776 -0.039259770966749374
    endloop
  endfacet
  facet normal 1 -0 -0
    outer loop
      vertex 0.24000000000000021 0 0
      vertex 0.24000000000000021 -0.094781471523587776 0.039259770966749374
      vertex 0.24000000000000021 -0.10259072550936707 0
    endloop
  endfacet
  facet normal 1 -0 -0
    outer loop
      vertex 0.24000000000000021 0 0
      vertex 0.24000000000000021 -0.072542597694521191 0.072542597694521205
      vertex 0.24000000000000021 -0.094781471523587776 0.039259770966749374
    endloop
  endfacet
  facet normal 1 -0 -0
    outer loop
      vertex 0.24000000000000021 0 0
      vertex 0.24000000000000021 -0.039259770966749423 0.094781471523587846
      vertex 0.24000000000000021 -0.072542597694521191 0.072542597694521205
    endloop
  endfacet
  facet normal 1 -0 -0
    outer loop
      vertex 0.24000000000000021 0 0
      vertex 0.24000000000000021 0 0.1025907255093671
      vertex 0.24000000000000021 -0.039259770966749423 0.094781471523587846
    endloop
  endfacet
  facet normal -1 -0 0
    outer loop
      vertex 0.20500000000000007 0 0
      vertex 0.20500000000000007 0 0.1025907255093671
      vertex 0.20500000000000007 0.039259770966749361 0.094781471523587846
    endloop
  endfacet
  facet normal -1 -0 0
    outer loop
      vertex 0.20500000000000007 0 0
      vertex 0.20500000000000007 0.039259770966749361 0.094781471523587846
      vertex 0.20500000000000007 0.072542597694521177 0.072542597694521205
    endloop
  endfacet
  facet normal -1 -0 0
    outer loop
      vertex 0.20500000000000007 0 0
      vertex 0.20500000000000007 0.072542597694521177 0.072542597694521205
      vertex 0.20500000000000007 0.09478147152358779 0.039259770966749374
    endloop
  endfacet
  facet normal -1 -0 0
    outer loop
      vertex 0.20500000000000007 0 0
      vertex 0.20500000000000007 0.09478147152358779 0.039259770966749374
      vertex 0.20500000000000007 0.10259072550936707 0
    endloop
  endfacet
  facet normal -1 0 0
    outer loop
      vertex 0.20500000000000007 0 0
      vertex 0.20500000000000007 0.10259072550936707 0
      vertex 0.20500000000000007 0.09478147152358779 -0.039259770966749374
    endloop
  endfacet
  facet normal -1 0 0
    outer loop
      vertex 0.20500000000000007 0 0
      vertex 0.20500000000000007 0.09478147152358779 -0.039259770966749374
      vertex 0.20500000000000007 0.072542597694521177 -0.072542597694521205
    endloop
  endfacet
  facet normal -1 0 0
    outer loop
      vertex 0.20500000000000007 0 0
      vertex 0.20500000000000007 0.072542597694521177 -0.072542597694521205
      vertex 0.20500000000000007 0.039259770966749374 -0.094781471523587846
    endloop
  endfacet
  facet normal -1 0 0
    outer loop
      vertex 0.20500000000000007 0 0
      vertex 0.20500000000000007 0.039259770966749374 -0.094781471523587846
      vertex 0.20500000000000007 1.2563740361725111e-17 -0.1025907255093671
    endloop
  endfacet
  facet normal -1 0 0
    outer loop
      vertex 0.20500000000000007 0 0
      vertex 0.20500000000000007 1.2563740361725111e-17 -0.1025907255093671
      vertex 0.20500000000000007 -0.039259770966749354 -0.094781471523587846
    endloop
  endfacet
  facet normal -1 0 -0
    outer loop
      vertex 0.20500000000000007 0 0
      vertex 0.20500000000000007 -0.039259770966749354 -0.094781471523587846
      vertex 0.20500000000000007 -0.072542597694521177 -0.072542597694521205
    endloop
  endfacet
  facet normal -1 0 -0
    outer loop
      vertex 0.20500000000000007 0 0
      vertex 0.20500000000000007 -0.072542597694521177 -0.072542597694521205
      vertex 0.20500000000000007 -0.094781471523587776 -0.039259770966749374
    endloop
  endfacet
  facet normal -1 0 -0
    outer loop
      vertex 0.20500000000000007 0 0
      vertex 0.20500000000000007 -0.094781471523587776 -0.039259770966749374
      vertex 0.20500000000000007 -0.10259072550936707 0
    endloop
  endfacet
  facet normal -1 -0 -0
    outer loop
      vertex 0.20500000000000007 0 0
      vertex 0.20500000000000007 -0.10259072550936707 0
      vertex 0.20500000000000007 -0.094781471523587776 0.039259770966749374
    endloop
  endfacet
  facet normal -1 -0 -0
    outer loop
      vertex 0.20500000000000007 0 0
      vertex 0.20500000000000007 -0.094781471523587776 0.039259770966749374
      vertex 0.20500000000000007 -0.072542597694521191 0.072542597694521205
    endloop
  endfacet
  facet normal -1 -0 -0
    outer loop
      vertex 0.20500000000000007 0 0
      vertex 0.20500000000000007 -0.072542597694521191 0.072542597694521205
      vertex 0.20500000000000007 -0.039259770966749423 0.094781471523587846
    endloop
  endfacet
  facet normal -1 -0 -0
    outer loop
      vertex 0.20500000000000007 0 0
      vertex 0.20500000000000007 -0.039259770966749423 0.094781471523587846
      vertex 0.20500000000000007 0 0.1025907255093671
    endloop
  endfacet
endsolid OBJECT
